<svg width="16" height="16" viewBox="0 0 16 16" fill="none" xmlns="http://www.w3.org/2000/svg">
<path d="M8.00179 3.69808C5.73162 3.69808 3.9005 5.43587 3.9005 7.59033C3.9005 9.74479 5.73162 11.4826 8.00179 11.4826C10.2719 11.4826 12.1031 9.74479 12.1031 7.59033C12.1031 5.43587 10.2719 3.69808 8.00179 3.69808ZM8.00179 10.1208C6.53475 10.1208 5.33542 8.98599 5.33542 7.59033C5.33542 6.19468 6.53118 5.05986 8.00179 5.05986C9.47239 5.05986 10.6682 6.19468 10.6682 7.59033C10.6682 8.98599 9.46882 10.1208 8.00179 10.1208ZM13.2274 3.53886C13.2274 4.0436 12.7991 4.44672 12.2708 4.44672C11.739 4.44672 11.3142 4.04022 11.3142 3.53886C11.3142 3.03751 11.7426 2.63101 12.2708 2.63101C12.7991 2.63101 13.2274 3.03751 13.2274 3.53886ZM15.9438 4.46027C15.8831 3.24415 15.5904 2.16692 14.6516 1.27939C13.7165 0.391861 12.5814 0.114085 11.2999 0.0531093C9.97925 -0.0180285 6.02075 -0.0180285 4.70006 0.0531093C3.4222 0.110697 2.28712 0.388473 1.34835 1.276C0.409593 2.16353 0.120468 3.24076 0.0562186 4.45688C-0.0187395 5.71026 -0.0187395 9.46702 0.0562186 10.7204C0.116899 11.9365 0.409593 13.0137 1.34835 13.9013C2.28712 14.7888 3.41863 15.0666 4.70006 15.1276C6.02075 15.1987 9.97925 15.1987 11.2999 15.1276C12.5814 15.07 13.7165 14.7922 14.6516 13.9013C15.5868 13.0137 15.8795 11.9365 15.9438 10.7204C16.0187 9.46702 16.0187 5.71365 15.9438 4.46027ZM14.2376 12.0652C13.9592 12.7292 13.4202 13.2407 12.717 13.5083C11.664 13.9047 9.16542 13.8132 8.00179 13.8132C6.83815 13.8132 4.33597 13.9013 3.28656 13.5083C2.58695 13.2441 2.04796 12.7326 1.76598 12.0652C1.34835 11.0659 1.44473 8.69466 1.44473 7.59033C1.44473 6.486 1.35192 4.11135 1.76598 3.11542C2.04439 2.45147 2.58338 1.93996 3.28656 1.67234C4.33954 1.276 6.83815 1.36747 8.00179 1.36747C9.16542 1.36747 11.6676 1.27939 12.717 1.67234C13.4166 1.93657 13.9556 2.44808 14.2376 3.11542C14.6552 4.11474 14.5588 6.486 14.5588 7.59033C14.5588 8.69466 14.6552 11.0693 14.2376 12.0652Z" fill="white"/>
</svg>
