<svg width="19" height="15" viewBox="0 0 19 15" fill="none" xmlns="http://www.w3.org/2000/svg">
<path fill-rule="evenodd" clip-rule="evenodd" d="M8.90958 4.42077L8.86995 3.80247C8.75115 2.20003 9.79388 0.736367 11.4438 0.16862C12.051 -0.033286 13.0805 -0.0585242 13.7537 0.118143C14.0177 0.193858 14.5193 0.446165 14.8756 0.673309L15.5224 1.0897L16.2352 0.875215C16.6312 0.761605 17.1592 0.572356 17.3967 0.446165C17.6211 0.332631 17.8191 0.269498 17.8191 0.307392C17.8191 0.52188 17.3307 1.25371 16.9216 1.65745C16.3672 2.22527 16.5256 2.27575 17.6475 1.89717C18.3207 1.68269 18.3338 1.68269 18.2019 1.92241C18.1226 2.0486 17.7135 2.49024 17.2779 2.89397C16.5387 3.58799 16.4992 3.6637 16.4992 4.2441C16.4992 5.13995 16.0504 7.00735 15.6016 8.02938C14.77 9.94726 12.9881 11.9282 11.2062 12.925C8.69839 14.3256 5.35891 14.6789 2.54748 13.8587C1.61034 13.5811 0 12.8745 0 12.7484C0 12.7105 0.488346 12.66 1.08236 12.6475C2.32308 12.6222 3.5638 12.2941 4.61975 11.7137L5.33257 11.31L4.51415 11.045C3.35261 10.6664 2.30987 9.79583 2.04593 8.9757C1.96667 8.71074 1.99309 8.69808 2.73225 8.69808L3.49783 8.6855L2.85105 8.3953C2.08547 8.02938 1.38594 7.41109 1.04274 6.78021C0.79192 6.32599 0.475215 5.17777 0.5676 5.08947C0.59394 5.05165 0.871175 5.12729 1.18796 5.22824C2.09868 5.54368 2.21749 5.46797 1.68951 4.93804C0.699535 3.97914 0.39596 2.55329 0.871175 1.20324L1.09557 0.597594L1.96667 1.41772C3.74865 3.07064 5.84733 4.05485 8.24959 4.34506L8.90958 4.42077Z" fill="white"/>
</svg>
